HIERARCHY
ROOT Hips
{
	OFFSET 0.000000 0.000000 0.000000
	CHANNELS 6 Xposition Yposition Zposition Xrotation Yrotation Zrotation
	JOINT LeftUpLeg_virtual
	{
		OFFSET 0.000000 0.000000 0.000000
		CHANNELS 3 Xrotation Yrotation Zrotation
		JOINT LeftUpLeg
		{
			OFFSET 15.427100 -6.655098 0.678600
			CHANNELS 3 Xrotation Yrotation Zrotation
			JOINT LeftLeg
			{
				OFFSET 4.081073 -39.591068 13.024000
				CHANNELS 3 Xrotation Yrotation Zrotation
				JOINT LeftFoot
				{
					OFFSET -4.081074 -37.707932 -15.979700
					CHANNELS 3 Xrotation Yrotation Zrotation
					JOINT LeftToeBase
					{
						OFFSET 5.346399 -15.068900 20.645000
						CHANNELS 3 Xrotation Yrotation Zrotation
						JOINT LeftToe_End
						{
							OFFSET 2.754700 0.931300 11.300900
							CHANNELS 3 Xrotation Yrotation Zrotation
							End Site
							{
								OFFSET 0 0 0
							}
						}
					}
				}
			}
		}
	}
	JOINT RightUpLeg_virtual
	{
		OFFSET 0.000000 0.000000 0.000000
		CHANNELS 3 Xrotation Yrotation Zrotation
		JOINT RightUpLeg
		{
			OFFSET -15.569500 -6.655098 0.678600
			CHANNELS 3 Xrotation Yrotation Zrotation
			JOINT RightLeg
			{
				OFFSET -4.081825 -39.591045 13.023800
				CHANNELS 3 Xrotation Yrotation Zrotation
				JOINT RightFoot
				{
					OFFSET 4.081824 -37.707954 -15.979600
					CHANNELS 3 Xrotation Yrotation Zrotation
					JOINT RightToeBase
					{
						OFFSET -5.346400 -15.068900 20.645000
						CHANNELS 3 Xrotation Yrotation Zrotation
						JOINT RightToe_End
						{
							OFFSET -2.754700 0.931300 11.300900
							CHANNELS 3 Xrotation Yrotation Zrotation
							End Site
							{
								OFFSET 0 0 0
							}
						}
					}
				}
			}
		}
	}
	JOINT Spine_virtual
	{
		OFFSET 0.000000 0.000000 0.000000
		CHANNELS 3 Xrotation Yrotation Zrotation
		JOINT Spine
		{
			OFFSET -0.279200 12.230698 -2.892100
			CHANNELS 3 Xrotation Yrotation Zrotation
			JOINT Spine1
			{
				OFFSET -0.232667 10.192268 -1.242267
				CHANNELS 3 Xrotation Yrotation Zrotation
				JOINT Spine1_split
				{
					OFFSET -0.232667 10.192268 -1.242267
					CHANNELS 3 Xrotation Yrotation Zrotation
					JOINT Spine2
					{
						OFFSET -0.232667 10.192268 -1.242267
						CHANNELS 3 Xrotation Yrotation Zrotation
						JOINT Neck_virtual
						{
							OFFSET 0.000000 0.000000 0.000000
							CHANNELS 3 Xrotation Yrotation Zrotation
							JOINT Neck
							{
								OFFSET -0.418800 17.814194 8.416900
								CHANNELS 3 Xrotation Yrotation Zrotation
								JOINT Head
								{
									OFFSET 0.000000 7.031097 3.806800
									CHANNELS 3 Xrotation Yrotation Zrotation
									JOINT HeadTop_End
									{
										OFFSET 0.000000 24.646606 12.978600
										CHANNELS 3 Xrotation Yrotation Zrotation
										End Site
										{
											OFFSET 0 0 0
										}
									}
								}
							}
						}
						JOINT LeftShoulder_virtual
						{
							OFFSET 0.000000 0.000000 0.000000
							CHANNELS 3 Xrotation Yrotation Zrotation
							JOINT LeftShoulder
							{
								OFFSET 8.476499 7.247704 -3.868750
								CHANNELS 3 Xrotation Yrotation Zrotation
								JOINT LeftShoulder_split
								{
									OFFSET 8.476499 7.247704 -3.868750
									CHANNELS 3 Xrotation Yrotation Zrotation
									JOINT LeftArm
									{
										OFFSET 9.308998 -2.777710 0.208600
										CHANNELS 3 Xrotation Yrotation Zrotation
										JOINT LeftForeArm
										{
											OFFSET 29.972298 0.000000 0.000000
											CHANNELS 3 Xrotation Yrotation Zrotation
											JOINT LeftHand
											{
												OFFSET 26.026505 0.000000 0.000000
												CHANNELS 3 Xrotation Yrotation Zrotation
												End Site
												{
													OFFSET 0 0 0
												}
											}
										}
									}
								}
							}
						}
						JOINT RightShoulder_virtual
						{
							OFFSET 0.000000 0.000000 0.000000
							CHANNELS 3 Xrotation Yrotation Zrotation
							JOINT RightShoulder
							{
								OFFSET -7.570500 7.247704 -3.868750
								CHANNELS 3 Xrotation Yrotation Zrotation
								JOINT RightShoulder_split
								{
									OFFSET -7.570500 7.247704 -3.868750
									CHANNELS 3 Xrotation Yrotation Zrotation
									JOINT RightArm
									{
										OFFSET -9.308998 -2.777710 0.208500
										CHANNELS 3 Xrotation Yrotation Zrotation
										JOINT RightForeArm
										{
											OFFSET -29.972300 0.000000 0.000000
											CHANNELS 3 Xrotation Yrotation Zrotation
											JOINT RightHand
											{
												OFFSET -26.026505 0.000000 0.000000
												CHANNELS 3 Xrotation Yrotation Zrotation
												End Site
												{
													OFFSET 0 0 0
												}
											}
										}
									}
								}
							}
						}
					}
				}
			}
		}
	}
}
MOTION
Frames: 7
Frame Time: 0.03333333
-0.515021 91.480316 0.319538 0.000000 0.000000 0.000000 0.119328 -6.239637 0.477027 -9.272690 -4.714209 12.263618 23.345662 2.385747 -0.883673 -5.627510 10.633402 -12.051666 -1.898995 0.426574 -1.150483 0.000000 0.000000 0.000000 1.187633 -6.491355 0.277192 -1.577772 -4.277953 -14.781549 18.050894 2.985685 4.284316 -13.427036 -12.994370 10.934853 5.352047 -0.276928 -0.225875 0.000000 0.000000 0.000000 1.011058 -3.919860 -0.946045 2.988768 -0.647470 0.995187 2.438018 -0.067521 0.239786 1.090719 -0.373309 -0.161879 0.000000 0.000000 0.000000 2.330020 -0.055151 0.059741 -0.997416 0.428522 1.091922 1.057671 0.696831 2.316013 0.000000 0.000000 0.000000 1.850831 0.109459 0.058492 0.495392 9.798378 -11.590365 -1.276844 -1.293298 -1.200411 13.779972 -8.524611 -50.620991 1.332164 -35.214000 1.589711 0.000000 0.000000 0.000000 2.060830 -0.047148 0.088745 1.553706 -7.645015 12.867950 0.809456 2.049057 -2.201122 5.655589 20.339675 60.946584 2.652168 24.275423 1.043348 0.000000 0.000000 0.000000 
-0.603719 91.678040 0.149967 0.000000 0.000000 0.000000 0.222980 -5.711733 0.878225 -9.489240 -3.734255 11.517818 23.295989 1.368150 -0.963962 -4.012057 9.043416 -13.331722 -3.115735 0.291205 -0.483163 0.000000 0.000000 0.000000 1.095621 -6.367864 0.597853 -1.836375 -4.852737 -15.254355 17.744898 2.867557 4.371923 -13.582675 -12.443473 9.881627 6.232921 -0.292074 0.059969 0.000000 0.000000 0.000000 1.219293 -3.682041 -0.313174 2.972381 -0.771356 0.847127 2.259096 -0.123907 0.201965 0.865715 -0.520187 -0.146568 0.000000 0.000000 0.000000 2.250662 -0.114012 0.045150 -0.695386 0.543713 0.779691 1.436589 0.873963 2.368651 0.000000 0.000000 0.000000 1.796813 0.028004 0.019046 0.536172 9.604971 -11.516208 -1.274526 -1.142269 -1.124162 13.438838 -9.258607 -50.915037 1.371612 -35.681953 1.647200 0.000000 0.000000 0.000000 2.029289 -0.124721 0.092108 1.623073 -7.670130 12.828066 0.677328 2.050722 -2.497164 5.487774 20.582294 60.775249 2.592326 25.347081 1.061983 0.000000 0.000000 0.000000 
-0.815947 91.995804 -0.188477 0.000000 0.000000 0.000000 0.375507 -5.328935 1.781190 -8.609518 -2.003981 9.650451 21.955565 0.764677 -1.195775 -3.695852 6.984451 -12.971265 -6.679155 0.009185 0.772873 0.000000 0.000000 0.000000 1.167327 -6.108668 1.412892 -2.953420 -5.382229 -16.065066 18.443712 2.945034 4.471973 -13.307395 -11.470029 8.280232 4.827795 -0.241562 0.267170 0.000000 0.000000 0.000000 1.406771 -3.592412 0.730569 3.030439 -1.177695 0.367382 1.965610 -0.245515 0.100024 0.828563 -0.475827 -0.127465 0.000000 0.000000 0.000000 1.950206 -0.215940 -0.014499 -0.352189 0.606135 0.467670 2.358672 1.089778 2.459679 0.000000 0.000000 0.000000 1.572670 -0.106639 -0.041466 0.545709 9.117163 -11.411140 -1.102748 -0.829083 -1.009627 13.481169 -10.423407 -51.238057 1.130297 -36.208001 1.456461 0.000000 0.000000 0.000000 1.818911 -0.254649 0.078038 1.668175 -7.526147 12.765513 0.642296 2.004597 -2.733554 5.525826 20.954112 60.545153 2.427516 26.663918 1.070288 0.000000 0.000000 0.000000 
-1.038559 92.145523 -0.482162 0.000000 0.000000 0.000000 0.496798 -5.282196 2.897913 -7.164970 0.532301 7.305605 19.996931 1.113300 -1.644337 -5.472386 5.316835 -10.577187 -7.215215 -0.103230 0.877113 0.000000 0.000000 0.000000 1.249274 -5.897002 2.461790 -4.893372 -5.792724 -16.839848 20.363471 3.181409 4.586901 -12.447895 -10.281883 6.298232 0.836430 -0.227855 0.439864 0.000000 0.000000 0.000000 1.554631 -4.068881 1.879000 3.216074 -1.786098 -0.358386 1.587604 -0.409201 -0.025086 0.850681 -0.336627 -0.083738 0.000000 0.000000 0.000000 1.525756 -0.329988 -0.098992 -0.038676 0.607339 0.238514 3.727003 1.385642 2.546869 0.000000 0.000000 0.000000 1.228216 -0.260000 -0.103581 0.517869 8.384259 -11.274619 -0.908468 -0.402233 -0.831049 13.856059 -11.814724 -51.579840 0.698706 -36.641906 1.086308 0.000000 0.000000 0.000000 1.480269 -0.399212 0.057347 1.673312 -7.202574 12.780300 0.625484 1.905852 -2.809878 5.732775 21.412535 60.252008 2.222633 27.850583 1.034907 0.000000 0.000000 0.000000 
-1.280625 91.950882 -0.688717 0.000000 0.000000 0.000000 0.671358 -5.701687 3.896685 -6.136762 3.374544 5.246647 18.389938 1.963012 -2.254074 -8.037732 4.009299 -7.693977 -2.825048 0.052953 -0.586623 0.000000 0.000000 0.000000 1.366167 -6.228328 3.453077 -7.411477 -6.047147 -17.135391 23.083311 3.596299 4.708788 -11.116705 -8.872141 4.256600 -4.810413 -0.292105 0.470918 0.000000 0.000000 0.000000 1.512069 -5.206017 2.826016 3.532704 -2.446722 -1.132658 1.186067 -0.572606 -0.119455 1.018685 -0.145641 -0.093451 0.000000 0.000000 0.000000 1.089897 -0.430432 -0.177349 0.177112 0.565426 0.126753 5.417249 1.778064 2.569486 0.000000 0.000000 0.000000 0.847759 -0.390656 -0.141154 0.453885 7.525887 -11.090123 -0.870228 -0.056742 -0.674720 14.491587 -13.300833 -51.896163 0.236195 -36.966118 0.684441 0.000000 0.000000 0.000000 1.084952 -0.528002 0.041016 1.630675 -6.706247 12.961176 0.533827 1.733587 -2.827306 6.003655 21.828827 59.884954 2.040915 28.726529 0.948599 0.000000 0.000000 0.000000 
-1.427265 91.376678 -0.657848 0.000000 0.000000 0.000000 0.779598 -6.720580 4.434020 -5.462237 5.673528 3.971038 17.309504 2.499472 -2.802748 -10.267652 2.630643 -5.535904 1.598964 0.147261 -1.535309 0.000000 0.000000 0.000000 1.423394 -7.110878 4.093975 -10.097061 -6.214542 -16.655094 26.052783 4.278125 4.960701 -9.533087 -7.106347 2.391769 -10.270087 -0.398254 0.325457 0.000000 0.000000 0.000000 1.325810 -6.777399 3.364797 3.959190 -2.983813 -1.767230 0.836333 -0.690763 -0.151343 1.244255 -0.021620 -0.054495 0.000000 0.000000 0.000000 0.737891 -0.494620 -0.225839 0.284405 0.499128 0.112353 7.342805 2.272479 2.450637 0.000000 0.000000 0.000000 0.510781 -0.476586 -0.135660 0.379751 6.688705 -10.844400 -0.980793 0.124807 -0.485322 15.287495 -14.775127 -52.121590 -0.078498 -37.205044 0.397304 0.000000 0.000000 0.000000 0.712558 -0.626708 0.039041 1.549790 -6.068936 13.367373 0.400050 1.541919 -2.805690 6.263044 22.031475 59.489944 1.921238 29.373505 0.814791 0.000000 0.000000 0.000000 
-1.402981 90.614288 -0.716305 0.000000 0.000000 0.000000 0.720428 -8.041884 4.439677 -5.149480 7.249891 3.573256 17.050191 2.481300 -3.176756 -12.048334 1.163816 -4.583903 2.369771 0.211638 -1.023730 0.000000 0.000000 0.000000 1.490698 -8.328201 4.209341 -12.360236 -6.490063 -15.225957 28.462457 5.251282 5.380266 -7.901615 -4.942657 0.787566 -14.164912 -0.448726 0.038968 0.000000 0.000000 0.000000 1.103334 -8.587550 3.450438 4.454517 -3.292025 -2.145020 0.568629 -0.739584 -0.123882 1.261574 0.148177 0.057040 0.000000 0.000000 0.000000 0.519299 -0.515978 -0.230535 0.340339 0.453874 0.164378 9.435932 2.835228 2.152515 0.000000 0.000000 0.000000 0.279906 -0.507043 -0.095467 0.330551 6.007720 -10.561924 -1.134535 0.150289 -0.318244 16.160007 -16.160784 -52.188888 -0.143014 -37.363904 0.297823 0.000000 0.000000 0.000000 0.426011 -0.690619 0.038715 1.446614 -5.358797 13.917097 0.354027 1.478159 -2.756821 6.542278 21.849659 59.133059 1.875438 30.123484 0.645230 0.000000 0.000000 0.000000 
